<svg xmlns="http://www.w3.org/2000/svg" xmlns:xlink="http://www.w3.org/1999/xlink" width="256" height="256" viewBox="0 0 256 256">
  <defs>
    <radialGradient id="radial-gradient" cx="-0.223" cy="-0.274" r="1.605" gradientTransform="matrix(0.87, 0.493, -0.42, 0.742, -0.144, 0.039)" gradientUnits="objectBoundingBox">
      <stop offset="0" stop-color="#1760fd"/>
      <stop offset="1" stop-color="#4b83fc"/>
    </radialGradient>
    <clipPath id="clip-SVG_icon">
      <rect width="256" height="256"/>
    </clipPath>
  </defs>
  <g id="SVG_icon" data-name="SVG icon" clip-path="url(#clip-SVG_icon)">
    <rect width="256" height="256" fill="#fff"/>
    <rect id="Rectangle_5" data-name="Rectangle 5" width="267" height="271" transform="translate(-9 -7)" fill="url(#radial-gradient)"/>
    <g id="Groupe_1" data-name="Groupe 1" transform="translate(50 98)">
      <g id="Group_9" data-name="Group 9" transform="translate(0)">
        <path id="Path_7" data-name="Path 7" d="M1264.622,333.629v9.752h-6.37v-9.83L1247.6,315.856h6.764l7.353,12.229,7.353-12.229h6.252Z" transform="translate(-1247.596 -315.384)" fill="#fff"/>
        <path id="Path_8" data-name="Path 8" d="M1313.932,342.18c0-6.37,4.915-10.892,11.639-10.892s11.6,4.522,11.6,10.892-4.876,10.892-11.6,10.892S1313.932,348.55,1313.932,342.18Zm17.026,0c0-3.657-2.32-5.859-5.387-5.859s-5.426,2.2-5.426,5.859,2.359,5.859,5.426,5.859S1330.958,345.837,1330.958,342.18Z" transform="translate(-1287.902 -324.761)" fill="#fff"/>
        <path id="Path_9" data-name="Path 9" d="M1404.7,332.09v21.155h-5.82v-2.516a8.561,8.561,0,0,1-6.568,2.831c-5.308,0-9.044-2.988-9.044-9.516V332.09h6.134v11.049c0,3.539,1.573,5.112,4.285,5.112,2.831,0,4.875-1.809,4.875-5.7V332.09Z" transform="translate(-1330.029 -325.248)" fill="#fff"/>
        <path id="Path_10" data-name="Path 10" d="M1449.1,328.889c0-8.3,6.371-14.235,14.942-14.235,4.758,0,8.729,1.73,11.324,4.876l-4.09,3.774a8.85,8.85,0,0,0-6.919-3.225,8.808,8.808,0,1,0,0,17.616,8.774,8.774,0,0,0,6.921-3.263l4.089,3.774c-2.6,3.185-6.568,4.915-11.364,4.915C1455.472,343.122,1449.1,337.185,1449.1,328.889Z" transform="translate(-1370.029 -314.654)" fill="#fff"/>
        <path id="Path_11" data-name="Path 11" d="M1542.045,340.69v12.073H1536.3v-2.635c-1.14,1.927-3.342,2.949-6.448,2.949-4.954,0-7.9-2.752-7.9-6.409,0-3.736,2.635-6.331,9.083-6.331h4.875c0-2.634-1.573-4.168-4.875-4.168a10.169,10.169,0,0,0-6.095,1.966l-2.2-4.285a16.261,16.261,0,0,1,9.123-2.556C1538.31,331.292,1542.045,334.281,1542.045,340.69Zm-6.134,5.387v-2.163H1531.7c-2.87,0-3.774,1.062-3.774,2.477,0,1.532,1.3,2.555,3.46,2.555A4.519,4.519,0,0,0,1535.911,346.077Z" transform="translate(-1414.293 -324.765)" fill="#fff"/>
        <path id="Path_12" data-name="Path 12" d="M1608.913,340.647v12.111h-6.133V341.592c0-3.421-1.573-4.994-4.285-4.994-2.949,0-5.072,1.809-5.072,5.7v10.459h-6.134V331.6h5.858v2.478a9.264,9.264,0,0,1,7-2.792C1605.138,331.288,1608.913,334.2,1608.913,340.647Z" transform="translate(-1453.991 -324.761)" fill="#fff"/>
      </g>
      <rect id="Rectangle_5-2" data-name="Rectangle 5" width="52.975" height="24.722" rx="6" transform="translate(102.969 35.06)" fill="#fff"/>
      <g id="Group_11" data-name="Group 11" transform="translate(111.703 39.118)">
        <g id="Group_10" data-name="Group 10" transform="translate(0 0)">
          <path id="Path_13" data-name="Path 13" d="M1544.477,419.574c0,3.213-2.355,5.211-6.119,5.211h-2.839v3.976h-3.261V414.342h6.1C1542.124,414.342,1544.477,416.341,1544.477,419.574Zm-3.3,0c0-1.586-1.006-2.513-3-2.513h-2.659v5h2.659C1540.17,422.066,1541.176,421.139,1541.176,419.574Z" transform="translate(-1532.258 -414.342)" fill="#4b83fc"/>
          <path id="Path_14" data-name="Path 14" d="M1576.962,427.351v6.323h-2.94v-1.38a3.527,3.527,0,0,1-3.3,1.545c-2.536,0-4.045-1.442-4.045-3.358,0-1.957,1.348-3.315,4.649-3.315h2.5c0-1.38-.806-2.183-2.5-2.183a5.129,5.129,0,0,0-3.12,1.03l-1.126-2.245a8.193,8.193,0,0,1,4.67-1.339C1575.05,422.427,1576.962,423.993,1576.962,427.351Zm-3.14,2.821v-1.133h-2.154c-1.47,0-1.932.556-1.932,1.3,0,.8.665,1.339,1.771,1.339A2.31,2.31,0,0,0,1573.822,430.172Z" transform="translate(-1553.17 -419.255)" fill="#4b83fc"/>
          <path id="Path_15" data-name="Path 15" d="M1607.8,422.843l-4.892,11.76c-1.047,2.678-2.537,3.481-4.489,3.481a4.741,4.741,0,0,1-3.02-1.009l1.147-2.286a2.749,2.749,0,0,0,1.771.7c.866,0,1.349-.391,1.771-1.379l.041-.1-4.691-11.164h3.241l3.039,7.518,3.06-7.518Z" transform="translate(-1570.623 -419.506)" fill="#4b83fc"/>
        </g>
      </g>
    </g>
  </g>
</svg>
